<?xml version="1.0" encoding="UTF-8"?>
<!DOCTYPE svg PUBLIC "-//W3C//DTD SVG 1.1//EN" "http://www.w3.org/Graphics/SVG/1.1/DTD/svg11.dtd">
<svg xmlns="http://www.w3.org/2000/svg" version="1.1" width="360px" height="360px" style="shape-rendering:geometricPrecision; text-rendering:geometricPrecision; image-rendering:optimizeQuality; fill-rule:evenodd; clip-rule:evenodd" xmlns:xlink="http://www.w3.org/1999/xlink">
<g><path style="opacity:0.999" fill="#8ec149" d="M 123.5,90.5 C 131.548,87.8039 138.048,89.8039 143,96.5C 144.166,101.333 142.333,103.167 137.5,102C 133.888,96.7587 129.721,96.2587 125,100.5C 123.327,112.755 128.494,117.255 140.5,114C 147.931,109.706 149.931,103.873 146.5,96.5C 141.852,86.8427 134.186,83.0093 123.5,85C 106.753,93.9114 102.92,106.745 112,123.5C 125.8,138.665 141.3,140.498 158.5,129C 176.628,114.264 196.628,102.598 218.5,94C 228.63,90.8943 238.963,89.8943 249.5,91C 253.882,91.5911 257.882,93.0911 261.5,95.5C 263.04,98.291 262.706,100.791 260.5,103C 253.792,102.828 247.126,101.995 240.5,100.5C 222.669,102.751 206.336,108.917 191.5,119C 183.671,129.972 181.005,142.138 183.5,155.5C 183.576,158.973 184.242,162.306 185.5,165.5C 183.5,165.5 181.5,165.5 179.5,165.5C 179.204,163.597 178.537,161.93 177.5,160.5C 177.768,158.901 177.434,157.568 176.5,156.5C 175.363,147.362 175.363,138.362 176.5,129.5C 164.905,139.297 151.571,145.297 136.5,147.5C 115.883,145.38 102.716,134.38 97,114.5C 94.8192,95.7089 102.319,82.5422 119.5,75C 138.048,71.0202 150.548,77.8535 157,95.5C 158.25,115.248 149.083,124.748 129.5,124C 115.248,118.245 111.414,108.412 118,94.5C 119.451,92.5359 121.284,91.2026 123.5,90.5 Z"/></g>
<g><path style="opacity:0.412" fill="#8fb757" d="M 146.5,96.5 C 149.931,103.873 147.931,109.706 140.5,114C 128.494,117.255 123.327,112.755 125,100.5C 129.721,96.2587 133.888,96.7587 137.5,102C 142.333,103.167 144.166,101.333 143,96.5C 138.048,89.8039 131.548,87.8039 123.5,90.5C 129.65,87.6129 135.65,88.1129 141.5,92C 144.488,95.2518 145.155,98.9185 143.5,103C 142.128,103.402 140.795,103.902 139.5,104.5C 136.5,102.5 133.5,100.5 130.5,98.5C 125.423,101.238 124.256,105.238 127,110.5C 135.018,116.078 141.352,114.411 146,105.5C 146.498,102.518 146.665,99.5184 146.5,96.5 Z"/></g>
<g><path style="opacity:0.478" fill="#8eb855" d="M 209.5,160.5 C 219.847,156.484 226.847,149.151 230.5,138.5C 229.975,137.808 229.308,137.308 228.5,137C 232.052,132.778 233.219,127.945 232,122.5C 227.758,124.915 223.258,126.749 218.5,128C 210.015,127.735 202.848,130.569 197,136.5C 196.282,135.549 195.449,135.383 194.5,136C 189.325,141.863 187.158,148.696 188,156.5C 189.617,155.464 189.784,154.297 188.5,153C 190.518,152.495 192.518,151.995 194.5,151.5C 196.475,148.654 199.141,146.487 202.5,145C 204.747,143.691 207.08,143.025 209.5,143C 202.45,146.384 196.617,151.218 192,157.5C 191.365,158.966 190.531,160.3 189.5,161.5C 190.689,162.429 192.022,162.762 193.5,162.5C 191.371,163.203 189.371,164.203 187.5,165.5C 186.833,165.5 186.167,165.5 185.5,165.5C 184.242,162.306 183.576,158.973 183.5,155.5C 184.268,156.263 184.768,157.263 185,158.5C 185.356,148.632 188.856,140.132 195.5,133C 199.187,131.517 203.187,129.851 207.5,128C 216.491,127.505 224.824,125.005 232.5,120.5C 233.84,121.688 234.507,123.188 234.5,125C 234.164,137.335 229.497,147.669 220.5,156C 217.274,158.575 213.607,160.075 209.5,160.5 Z M 190.5,156.5 C 190.573,158.027 189.906,159.027 188.5,159.5C 188.427,157.973 189.094,156.973 190.5,156.5 Z M 188.5,159.5 C 187.901,163.88 186.901,164.214 185.5,160.5C 186.325,159.614 187.325,159.281 188.5,159.5 Z"/></g>
<g><path style="opacity:1" fill="#8dc445" d="M 209.5,160.5 C 204.308,161.966 198.975,162.633 193.5,162.5C 192.022,162.762 190.689,162.429 189.5,161.5C 190.531,160.3 191.365,158.966 192,157.5C 196.617,151.218 202.45,146.384 209.5,143C 207.08,143.025 204.747,143.691 202.5,145C 199.141,146.487 196.475,148.654 194.5,151.5C 192.518,151.995 190.518,152.495 188.5,153C 189.784,154.297 189.617,155.464 188,156.5C 187.158,148.696 189.325,141.863 194.5,136C 195.449,135.383 196.282,135.549 197,136.5C 202.848,130.569 210.015,127.735 218.5,128C 223.258,126.749 227.758,124.915 232,122.5C 233.219,127.945 232.052,132.778 228.5,137C 229.308,137.308 229.975,137.808 230.5,138.5C 226.847,149.151 219.847,156.484 209.5,160.5 Z"/></g>
<g><path style="opacity:0.998" fill="#8ec149" d="M 176.5,156.5 C 176.67,157.822 176.337,158.989 175.5,160C 176.094,160.464 176.761,160.631 177.5,160.5C 177.5,161.5 177.5,162.5 177.5,163.5C 172.092,165.033 166.759,166.866 161.5,169C 154.283,170.405 147.616,169.071 141.5,165C 137.452,160.62 133.785,155.954 130.5,151C 131.941,149.354 133.608,149.187 135.5,150.5C 143.355,147.881 151.355,145.881 159.5,144.5C 166.896,146.256 172.563,150.256 176.5,156.5 Z"/></g>
<g><path style="opacity:1" fill="#521950" d="M 179.5,165.5 C 181.5,165.5 183.5,165.5 185.5,165.5C 186.167,165.5 186.833,165.5 187.5,165.5C 191.964,164.909 195.631,166.242 198.5,169.5C 198.631,170.376 198.298,171.043 197.5,171.5C 190.322,168.241 183.822,169.241 178,174.5C 177.51,175.793 177.343,177.127 177.5,178.5C 176.833,178.5 176.5,178.833 176.5,179.5C 175.662,179.842 175.328,180.508 175.5,181.5C 173.794,186.723 175.127,191.223 179.5,195C 180.793,195.49 182.127,195.657 183.5,195.5C 184.833,195.167 184.833,194.833 183.5,194.5C 182.764,192.771 181.43,191.771 179.5,191.5C 176.64,185.338 177.307,179.505 181.5,174C 189.506,171.039 196.506,172.539 202.5,178.5C 202.833,178.5 203.167,178.5 203.5,178.5C 204.779,184.841 204.779,191.174 203.5,197.5C 202.92,199.749 201.587,201.415 199.5,202.5C 196.726,203.723 194.059,205.223 191.5,207C 185.97,207.914 180.637,207.247 175.5,205C 173.469,202.667 171.135,200.833 168.5,199.5C 167.21,198.942 166.377,197.942 166,196.5C 164.473,200.386 162.306,203.886 159.5,207C 169.148,207.309 175.815,211.809 179.5,220.5C 178.067,219.167 176.733,217.667 175.5,216C 174.668,215.312 174.002,215.479 173.5,216.5C 177.498,224.855 175.832,231.688 168.5,237C 166.899,237.273 165.399,237.773 164,238.5C 165.815,236.017 168.149,233.684 171,231.5C 172.368,228.262 172.701,224.928 172,221.5C 170.882,219.235 170.049,216.901 169.5,214.5C 166.903,214.357 164.569,213.523 162.5,212C 159.446,211.179 156.446,211.345 153.5,212.5C 148.536,214.467 144.869,217.8 142.5,222.5C 143.236,218.209 145.569,215.042 149.5,213C 128.196,213.111 119.529,202.944 123.5,182.5C 124.712,181.77 125.712,180.77 126.5,179.5C 127.156,184.879 127.989,190.213 129,195.5C 129.671,196.252 130.504,196.586 131.5,196.5C 131.833,196.5 132.167,196.5 132.5,196.5C 132.5,197.167 132.833,197.5 133.5,197.5C 133.804,198.15 134.137,198.817 134.5,199.5C 141.948,203.238 148.115,201.905 153,195.5C 153.667,192.167 153.667,188.833 153,185.5C 150.116,179.457 145.616,177.957 139.5,181C 138.242,182.741 137.242,184.574 136.5,186.5C 136.5,187.167 136.5,187.833 136.5,188.5C 136.285,190.179 136.952,191.179 138.5,191.5C 137.311,185.489 139.644,182.656 145.5,183C 143.027,184.742 143.027,186.575 145.5,188.5C 145.135,191.362 143.469,192.862 140.5,193C 141.025,193.692 141.692,194.192 142.5,194.5C 144.413,193.627 146.247,192.627 148,191.5C 148.157,189.005 148.324,186.672 148.5,184.5C 149.192,185.025 149.692,185.692 150,186.5C 150.497,189.146 150.664,191.813 150.5,194.5C 146.961,198.165 142.628,199.332 137.5,198C 134.308,195.972 131.641,193.472 129.5,190.5C 129.55,184.082 131.55,178.415 135.5,173.5C 135.833,173.5 136.167,173.5 136.5,173.5C 149.814,169.156 159.148,173.489 164.5,186.5C 167.082,184.806 167.749,182.639 166.5,180C 167.32,178.2 167.986,176.366 168.5,174.5C 171.096,170.346 174.763,167.346 179.5,165.5 Z"/></g>
<g><path style="opacity:1" fill="#531a51" d="M 239.5,175.5 C 246.523,182.057 248.523,189.723 245.5,198.5C 243.066,201.171 240.733,204.004 238.5,207C 233.53,208.024 228.697,209.524 224,211.5C 221.044,211.053 218.211,210.22 215.5,209C 212.723,206.608 210.057,204.108 207.5,201.5C 206.646,195.879 206.313,190.212 206.5,184.5C 212.723,174.923 221.39,171.757 232.5,175C 234.228,176.973 236.061,178.806 238,180.5C 238.624,178.536 238.124,176.869 236.5,175.5C 237.233,174.913 238.233,174.913 239.5,175.5 Z"/></g>
<g><path style="opacity:0.141" fill="#471e45" d="M 198.5,169.5 C 200.371,169.859 201.871,170.859 203,172.5C 204.757,175.014 206.257,177.681 207.5,180.5C 209.65,178.851 211.65,177.018 213.5,175C 217.9,173.534 222.066,171.701 226,169.5C 231.246,170.044 235.746,172.044 239.5,175.5C 238.233,174.913 237.233,174.913 236.5,175.5C 238.124,176.869 238.624,178.536 238,180.5C 236.061,178.806 234.228,176.973 232.5,175C 221.39,171.757 212.723,174.923 206.5,184.5C 206.313,190.212 206.646,195.879 207.5,201.5C 206.073,199.852 205.24,197.852 205,195.5C 204.722,196.416 204.222,197.082 203.5,197.5C 204.779,191.174 204.779,184.841 203.5,178.5C 203.167,177.167 202.833,177.167 202.5,178.5C 196.506,172.539 189.506,171.039 181.5,174C 177.307,179.505 176.64,185.338 179.5,191.5C 181.43,191.771 182.764,192.771 183.5,194.5C 183.5,194.833 183.5,195.167 183.5,195.5C 182.127,195.657 180.793,195.49 179.5,195C 175.127,191.223 173.794,186.723 175.5,181.5C 175.328,180.508 175.662,179.842 176.5,179.5C 177.167,179.5 177.5,179.167 177.5,178.5C 177.343,177.127 177.51,175.793 178,174.5C 183.822,169.241 190.322,168.241 197.5,171.5C 198.298,171.043 198.631,170.376 198.5,169.5 Z"/></g>
<g><path style="opacity:0.996" fill="#ddd1dd" d="M 222.5,186.5 C 223.552,186.351 224.552,186.517 225.5,187C 224.426,187.739 223.759,188.739 223.5,190C 224.452,191.3 224.452,192.467 223.5,193.5C 222.119,193 221.453,192 221.5,190.5C 221.846,189.151 222.179,187.817 222.5,186.5 Z"/></g>
<g><path style="opacity:1" fill="#dacdd9" d="M 229.5,183.5 C 230.458,183.953 231.292,184.619 232,185.5C 234.168,191.979 232.001,194.812 225.5,194C 227.329,193.727 228.829,192.893 230,191.5C 230.602,188.779 230.435,186.113 229.5,183.5 Z"/></g>
<g><path style="opacity:0.137" fill="#491e47" d="M 168.5,174.5 C 167.986,176.366 167.32,178.2 166.5,180C 167.749,182.639 167.082,184.806 164.5,186.5C 159.148,173.489 149.814,169.156 136.5,173.5C 136.167,172.167 135.833,172.167 135.5,173.5C 131.55,178.415 129.55,184.082 129.5,190.5C 131.641,193.472 134.308,195.972 137.5,198C 142.628,199.332 146.961,198.165 150.5,194.5C 150.664,191.813 150.497,189.146 150,186.5C 149.692,185.692 149.192,185.025 148.5,184.5C 148.324,186.672 148.157,189.005 148,191.5C 146.247,192.627 144.413,193.627 142.5,194.5C 141.692,194.192 141.025,193.692 140.5,193C 143.469,192.862 145.135,191.362 145.5,188.5C 143.027,186.575 143.027,184.742 145.5,183C 139.644,182.656 137.311,185.489 138.5,191.5C 136.952,191.179 136.285,190.179 136.5,188.5C 137.833,187.833 137.833,187.167 136.5,186.5C 137.242,184.574 138.242,182.741 139.5,181C 145.616,177.957 150.116,179.457 153,185.5C 153.667,188.833 153.667,192.167 153,195.5C 148.115,201.905 141.948,203.238 134.5,199.5C 134.137,198.817 133.804,198.15 133.5,197.5C 132.833,197.5 132.5,197.167 132.5,196.5C 132.167,195.167 131.833,195.167 131.5,196.5C 130.504,196.586 129.671,196.252 129,195.5C 127.989,190.213 127.156,184.879 126.5,179.5C 125.712,180.77 124.712,181.77 123.5,182.5C 127.137,173.661 133.804,168.661 143.5,167.5C 145.271,168.035 145.604,168.869 144.5,170C 153.513,170.256 160.013,174.423 164,182.5C 164.86,179.367 166.36,176.7 168.5,174.5 Z"/></g>
<g><path style="opacity:0.899" fill="#4a1e47" d="M 245.5,198.5 C 243.316,205.517 238.649,210.017 231.5,212C 227.5,212.333 223.5,212.667 219.5,213C 220.252,213.671 220.586,214.504 220.5,215.5C 217.333,212.502 214,209.669 210.5,207C 207.178,205.608 203.845,205.441 200.5,206.5C 200.957,207.298 201.624,207.631 202.5,207.5C 202.833,208.833 203.167,208.833 203.5,207.5C 205.819,207.992 207.819,208.992 209.5,210.5C 208.167,210.833 208.167,211.167 209.5,211.5C 209.5,212.167 209.833,212.5 210.5,212.5C 210.833,213.833 211.167,213.833 211.5,212.5C 213.969,213.607 214.969,215.607 214.5,218.5C 213.167,219.167 213.167,219.833 214.5,220.5C 215.833,221.5 215.833,222.5 214.5,223.5C 213.167,224.167 213.167,224.833 214.5,225.5C 214.824,229.537 213.158,232.203 209.5,233.5C 209.5,233.167 209.5,232.833 209.5,232.5C 214.322,224.423 213.322,217.256 206.5,211C 192.949,206.19 184.449,210.69 181,224.5C 180.209,223.255 179.709,221.922 179.5,220.5C 182.009,217.393 184.675,214.226 187.5,211C 186.167,210.333 186.167,209.667 187.5,209C 181.571,209.134 176.238,207.468 171.5,204C 169.859,202.871 168.859,201.371 168.5,199.5C 171.135,200.833 173.469,202.667 175.5,205C 180.637,207.247 185.97,207.914 191.5,207C 194.059,205.223 196.726,203.723 199.5,202.5C 202.228,204.076 205.228,204.576 208.5,204C 207.748,203.329 207.414,202.496 207.5,201.5C 210.057,204.108 212.723,206.608 215.5,209C 218.211,210.22 221.044,211.053 224,211.5C 228.697,209.524 233.53,208.024 238.5,207C 240.733,204.004 243.066,201.171 245.5,198.5 Z"/></g>
<g><path style="opacity:1" fill="#531950" d="M 220.5,215.5 C 226.739,228.952 223.406,239.452 210.5,247C 205.599,248.325 200.599,248.825 195.5,248.5C 195.5,248.167 195.5,247.833 195.5,247.5C 193.496,245.81 191.163,244.476 188.5,243.5C 187.416,242.335 186.583,241.002 186,239.5C 185.184,238.177 184.017,237.511 182.5,237.5C 181.192,233.777 180.192,234.11 179.5,238.5C 176.561,242.124 172.894,244.957 168.5,247C 162.445,248.936 156.445,248.769 150.5,246.5C 143.93,242.891 140.597,237.224 140.5,229.5C 140.44,226.845 141.107,224.511 142.5,222.5C 144.869,217.8 148.536,214.467 153.5,212.5C 156.446,211.345 159.446,211.179 162.5,212C 164.569,213.523 166.903,214.357 169.5,214.5C 170.049,216.901 170.882,219.235 172,221.5C 172.701,224.928 172.368,228.262 171,231.5C 168.149,233.684 165.815,236.017 164,238.5C 165.399,237.773 166.899,237.273 168.5,237C 175.832,231.688 177.498,224.855 173.5,216.5C 174.002,215.479 174.668,215.312 175.5,216C 176.733,217.667 178.067,219.167 179.5,220.5C 179.709,221.922 180.209,223.255 181,224.5C 184.449,210.69 192.949,206.19 206.5,211C 213.322,217.256 214.322,224.423 209.5,232.5C 208.167,232.833 208.167,233.167 209.5,233.5C 213.158,232.203 214.824,229.537 214.5,225.5C 214.5,224.833 214.5,224.167 214.5,223.5C 215.833,222.5 215.833,221.5 214.5,220.5C 214.5,219.833 214.5,219.167 214.5,218.5C 214.969,215.607 213.969,213.607 211.5,212.5C 211.167,212.5 210.833,212.5 210.5,212.5C 209.833,212.5 209.5,212.167 209.5,211.5C 209.5,211.167 209.5,210.833 209.5,210.5C 207.819,208.992 205.819,207.992 203.5,207.5C 203.167,207.5 202.833,207.5 202.5,207.5C 201.624,207.631 200.957,207.298 200.5,206.5C 203.845,205.441 207.178,205.608 210.5,207C 214,209.669 217.333,212.502 220.5,215.5 Z M 182.5,237.5 C 183.614,238.885 184.614,240.385 185.5,242C 182.854,242.497 180.187,242.664 177.5,242.5C 178.167,241.167 178.833,239.833 179.5,238.5C 180.192,234.11 181.192,233.777 182.5,237.5 Z"/></g>
<g><path style="opacity:0.396" fill="#c3b3c0" d="M 164.5,222.5 C 167.902,223.558 168.402,225.558 166,228.5C 165.495,226.482 164.995,224.482 164.5,222.5 Z"/></g>
<g><path style="opacity:1" fill="#531b50" d="M 182.5,237.5 C 184.017,237.511 185.184,238.177 186,239.5C 186.583,241.002 187.416,242.335 188.5,243.5C 191.163,244.476 193.496,245.81 195.5,247.5C 192.833,247.833 192.833,248.167 195.5,248.5C 205.344,260.245 204.677,271.412 193.5,282C 179.641,288.413 169.141,284.913 162,271.5C 159.493,263.878 160.659,256.878 165.5,250.5C 161.878,249.675 158.211,249.175 154.5,249C 152.68,248.8 151.347,247.966 150.5,246.5C 156.445,248.769 162.445,248.936 168.5,247C 172.894,244.957 176.561,242.124 179.5,238.5C 178.833,239.833 178.167,241.167 177.5,242.5C 180.187,242.664 182.854,242.497 185.5,242C 184.614,240.385 183.614,238.885 182.5,237.5 Z"/></g>
<g><path style="opacity:0.996" fill="#dbcfda" d="M 181.5,255.5 C 187.653,253.786 190.987,256.286 191.5,263C 191.546,264.728 191.046,266.228 190,267.5C 191.171,260.522 188.338,256.522 181.5,255.5 Z"/></g>
<g><path style="opacity:1" fill="#e2d7e1" d="M 178.5,255.5 C 179.376,255.369 180.043,255.702 180.5,256.5C 177.887,259.371 177.887,262.205 180.5,265C 181.784,265.684 182.951,265.517 184,264.5C 184.202,262.744 184.702,261.078 185.5,259.5C 187.031,265.466 184.698,267.632 178.5,266C 175.88,262.502 175.88,259.002 178.5,255.5 Z"/></g>
</svg>
